<svg xmlns="http://www.w3.org/2000/svg" viewBox="720 95 340 405" fill="none" role="img" aria-label="Aredir Labs">
  <defs>
    <linearGradient id="blade" x1="0" y1="0" x2="0" y2="1"><stop offset="0%" stop-color="#dbe8ff"/><stop offset="45%" stop-color="#7aa6ff"/><stop offset="100%" stop-color="#3f7bff"/></linearGradient>
    <linearGradient id="comet" x1="0" y1="1" x2="1" y2="0"><stop offset="0%" stop-color="#4b8eff" stop-opacity="0"/><stop offset="60%" stop-color="#7fb0ff" stop-opacity="0.6"/><stop offset="100%" stop-color="#eaf3ff" stop-opacity="0.95"/></linearGradient>
    <radialGradient id="sg" cx="50%" cy="50%" r="50%"><stop offset="0%" stop-color="#fff" stop-opacity="0.95"/><stop offset="35%" stop-color="#bcd6ff" stop-opacity="0.5"/><stop offset="100%" stop-color="#bcd6ff" stop-opacity="0"/></radialGradient>
    <filter id="s" x="-60%" y="-60%" width="220%" height="220%"><feGaussianBlur stdDeviation="5"/></filter>
    <filter id="l" x="-90%" y="-90%" width="280%" height="280%"><feGaussianBlur stdDeviation="10"/></filter>
  </defs>
  <g fill="#3f7bff" opacity="0.45" filter="url(#l)">
    <path d="M744,478 C 760,356 802,250 852,156 C 836,256 824,360 806,478 C 792,470 768,470 744,478 Z"/>
    <path d="M898,478 C 858,356 838,256 852,156 C 902,250 936,356 968,470 C 974,484 986,490 998,486 C 984,488 968,486 952,480 C 934,476 916,476 898,478 Z"/>
    <path d="M790,372 C 834,355 875,355 914,363 C 875,381 834,381 790,389 Z"/>
  </g>
  <g fill="url(#blade)">
    <path d="M744,478 C 760,356 802,250 852,156 C 836,256 824,360 806,478 C 792,470 768,470 744,478 Z"/>
    <path d="M898,478 C 858,356 838,256 852,156 C 902,250 936,356 968,470 C 974,484 986,490 998,486 C 984,488 968,486 952,480 C 934,476 916,476 898,478 Z"/>
    <path d="M790,372 C 834,355 875,355 914,363 C 875,381 834,381 790,389 Z"/>
  </g>
  <path d="M852,156 C 880,120 930,110 1004,232" stroke="url(#comet)" stroke-width="16" fill="none" stroke-linecap="round" filter="url(#l)" opacity="0.7"/>
  <path d="M852,156 C 880,120 930,110 1004,232" stroke="url(#comet)" stroke-width="6" fill="none" stroke-linecap="round"/>
  <circle cx="1004" cy="232" r="34" fill="url(#sg)"/>
  <path d="M1004 209 L1010 226 L1027 232 L1010 238 L1004 255 L998 238 L981 232 L998 226 Z" fill="#fff" filter="url(#s)"/>
  <path d="M1004 205 L1011 225 L1031 232 L1011 239 L1004 259 L997 239 L977 232 L997 225 Z" fill="#eaf3ff"/>
</svg>
