<svg xmlns="http://www.w3.org/2000/svg" viewBox="0 0 32 32" fill="none">
  <rect width="32" height="32" rx="7" fill="#14161c"/>
  <g fill="#cfe0ff">
    <path d="M6.5 27 C 8.5 19 12 11 16 5 C 15 13 13.5 21 12 27 C 10.5 25.5 8 25.5 6.5 27 Z"/>
    <path d="M20 27 C 18.5 19.5 17.5 12 16 5 C 19 12 22.5 19.5 25.5 27 C 23.5 25.5 21.5 25.5 20 27 Z"/>
    <path d="M10.5 18.5 C 13.5 17 18.5 17 21.5 18 C 18.5 19.7 13.5 19.7 10.5 21 Z"/>
  </g>
  <path d="M16 2 L16.9 4.6 L19.5 5.5 L16.9 6.4 L16 9 L15.1 6.4 L12.5 5.5 L15.1 4.6 Z" fill="#9ec2ff"/>
</svg>
